<mxfile host="app.diagrams.net" modified="2021-01-22T06:50:23.062Z" agent="5.0 (Macintosh; Intel Mac OS X 10_15_7) AppleWebKit/605.1.15 (KHTML, like Gecko) Version/14.0 Safari/605.1.15" etag="mVKtCsCDzdJgEojYEfDX" version="14.2.6" type="github" pages="2">
  <diagram id="PqnXXyoV6lCtjrcLmDvL" name="Page-1">
    <mxGraphModel dx="1771" dy="964" grid="1" gridSize="10" guides="1" tooltips="1" connect="1" arrows="1" fold="1" page="1" pageScale="1" pageWidth="1600" pageHeight="900" math="0" shadow="0">
      <root>
        <mxCell id="0" />
        <mxCell id="1" parent="0" />
        <mxCell id="ImT0Pv3CwqH1nHi5KgcZ-11" value="" style="ellipse;whiteSpace=wrap;html=1;fillColor=none;" parent="1" vertex="1">
          <mxGeometry x="150" y="360" width="20" height="80" as="geometry" />
        </mxCell>
        <mxCell id="ImT0Pv3CwqH1nHi5KgcZ-13" value="" style="endArrow=none;html=1;strokeColor=#000000;strokeWidth=1;" parent="1" edge="1">
          <mxGeometry width="50" height="50" relative="1" as="geometry">
            <mxPoint x="80" y="440" as="sourcePoint" />
            <mxPoint x="80" y="360" as="targetPoint" />
          </mxGeometry>
        </mxCell>
        <mxCell id="ImT0Pv3CwqH1nHi5KgcZ-16" value="" style="endArrow=none;html=1;strokeColor=#000000;strokeWidth=1;" parent="1" edge="1">
          <mxGeometry width="50" height="50" relative="1" as="geometry">
            <mxPoint x="1440" y="640" as="sourcePoint" />
            <mxPoint x="1440" y="160" as="targetPoint" />
          </mxGeometry>
        </mxCell>
        <mxCell id="ImT0Pv3CwqH1nHi5KgcZ-17" value="D" style="endArrow=classic;startArrow=classic;html=1;strokeColor=#000000;strokeWidth=1;" parent="1" edge="1">
          <mxGeometry width="50" height="50" relative="1" as="geometry">
            <mxPoint x="160" y="160" as="sourcePoint" />
            <mxPoint x="1440" y="160" as="targetPoint" />
          </mxGeometry>
        </mxCell>
        <mxCell id="ImT0Pv3CwqH1nHi5KgcZ-18" value="R_eye" style="endArrow=classic;startArrow=classic;html=1;strokeColor=#000000;strokeWidth=1;" parent="1" edge="1">
          <mxGeometry width="50" height="50" relative="1" as="geometry">
            <mxPoint x="80" y="160" as="sourcePoint" />
            <mxPoint x="160" y="160" as="targetPoint" />
          </mxGeometry>
        </mxCell>
        <mxCell id="ImT0Pv3CwqH1nHi5KgcZ-29" value="" style="endArrow=none;html=1;strokeWidth=1;" parent="1" edge="1">
          <mxGeometry width="50" height="50" relative="1" as="geometry">
            <mxPoint x="40" y="400" as="sourcePoint" />
            <mxPoint x="1560" y="400" as="targetPoint" />
          </mxGeometry>
        </mxCell>
        <mxCell id="ImT0Pv3CwqH1nHi5KgcZ-32" value="" style="rounded=0;whiteSpace=wrap;html=1;strokeWidth=1;fillColor=none;" parent="1" vertex="1">
          <mxGeometry x="1430" y="360" width="10" height="40" as="geometry" />
        </mxCell>
        <mxCell id="ImT0Pv3CwqH1nHi5KgcZ-39" value="H_pixel" style="endArrow=classic;startArrow=classic;html=1;strokeColor=#000000;strokeWidth=1;" parent="1" edge="1">
          <mxGeometry width="50" height="50" relative="1" as="geometry">
            <mxPoint x="1480" y="240" as="sourcePoint" />
            <mxPoint x="1480" y="200" as="targetPoint" />
          </mxGeometry>
        </mxCell>
        <mxCell id="ImT0Pv3CwqH1nHi5KgcZ-47" value="" style="rounded=0;whiteSpace=wrap;html=1;strokeWidth=1;fillColor=none;" parent="1" vertex="1">
          <mxGeometry x="1430" y="320" width="10" height="40" as="geometry" />
        </mxCell>
        <mxCell id="ImT0Pv3CwqH1nHi5KgcZ-48" value="" style="rounded=0;whiteSpace=wrap;html=1;strokeWidth=1;fillColor=none;" parent="1" vertex="1">
          <mxGeometry x="1430" y="280" width="10" height="40" as="geometry" />
        </mxCell>
        <mxCell id="ImT0Pv3CwqH1nHi5KgcZ-49" value="" style="rounded=0;whiteSpace=wrap;html=1;strokeWidth=1;fillColor=none;" parent="1" vertex="1">
          <mxGeometry x="1430" y="240" width="10" height="40" as="geometry" />
        </mxCell>
        <mxCell id="ImT0Pv3CwqH1nHi5KgcZ-50" value="" style="rounded=0;whiteSpace=wrap;html=1;strokeWidth=1;fillColor=none;" parent="1" vertex="1">
          <mxGeometry x="1430" y="400" width="10" height="40" as="geometry" />
        </mxCell>
        <mxCell id="BQ29MmcqGgJMtpkOQZWi-1" value="" style="ellipse;whiteSpace=wrap;html=1;aspect=fixed;strokeWidth=1;fillColor=none;dashed=1;" vertex="1" parent="1">
          <mxGeometry x="80" y="360" width="80" height="80" as="geometry" />
        </mxCell>
        <mxCell id="BQ29MmcqGgJMtpkOQZWi-7" value="" style="endArrow=none;html=1;strokeColor=#000000;strokeWidth=1;exitX=0;exitY=0.625;exitDx=0;exitDy=0;exitPerimeter=0;entryX=0;entryY=0;entryDx=0;entryDy=0;" edge="1" parent="1" source="BQ29MmcqGgJMtpkOQZWi-1" target="ImT0Pv3CwqH1nHi5KgcZ-49">
          <mxGeometry width="50" height="50" relative="1" as="geometry">
            <mxPoint x="760" y="430" as="sourcePoint" />
            <mxPoint x="1330" y="300" as="targetPoint" />
          </mxGeometry>
        </mxCell>
        <mxCell id="BQ29MmcqGgJMtpkOQZWi-9" value="" style="rounded=0;whiteSpace=wrap;html=1;strokeWidth=1;fillColor=none;" vertex="1" parent="1">
          <mxGeometry x="1430" y="440" width="10" height="40" as="geometry" />
        </mxCell>
        <mxCell id="BQ29MmcqGgJMtpkOQZWi-13" value="" style="rounded=0;whiteSpace=wrap;html=1;strokeWidth=1;fillColor=none;" vertex="1" parent="1">
          <mxGeometry x="1430" y="480" width="10" height="40" as="geometry" />
        </mxCell>
        <mxCell id="BQ29MmcqGgJMtpkOQZWi-14" value="" style="rounded=0;whiteSpace=wrap;html=1;strokeWidth=1;fillColor=none;" vertex="1" parent="1">
          <mxGeometry x="1430" y="520" width="10" height="40" as="geometry" />
        </mxCell>
        <mxCell id="BQ29MmcqGgJMtpkOQZWi-15" value="" style="endArrow=none;html=1;strokeColor=#000000;strokeWidth=1;entryX=0;entryY=1;entryDx=0;entryDy=0;" edge="1" parent="1" target="BQ29MmcqGgJMtpkOQZWi-14">
          <mxGeometry width="50" height="50" relative="1" as="geometry">
            <mxPoint x="80" y="390" as="sourcePoint" />
            <mxPoint x="640" y="420" as="targetPoint" />
          </mxGeometry>
        </mxCell>
        <mxCell id="BQ29MmcqGgJMtpkOQZWi-16" value="" style="rounded=0;whiteSpace=wrap;html=1;strokeWidth=1;fillColor=none;" vertex="1" parent="1">
          <mxGeometry x="1430" y="200" width="10" height="40" as="geometry" />
        </mxCell>
        <mxCell id="BQ29MmcqGgJMtpkOQZWi-17" value="" style="endArrow=none;html=1;strokeColor=#000000;strokeWidth=1;entryX=0;entryY=1;entryDx=0;entryDy=0;" edge="1" parent="1" target="BQ29MmcqGgJMtpkOQZWi-16">
          <mxGeometry width="50" height="50" relative="1" as="geometry">
            <mxPoint x="160" y="240" as="sourcePoint" />
            <mxPoint x="800" y="320" as="targetPoint" />
          </mxGeometry>
        </mxCell>
        <mxCell id="BQ29MmcqGgJMtpkOQZWi-18" value="" style="endArrow=none;html=1;strokeColor=#000000;strokeWidth=1;" edge="1" parent="1">
          <mxGeometry width="50" height="50" relative="1" as="geometry">
            <mxPoint x="80" y="410" as="sourcePoint" />
            <mxPoint x="160" y="240" as="targetPoint" />
          </mxGeometry>
        </mxCell>
        <mxCell id="BQ29MmcqGgJMtpkOQZWi-19" value="" style="endArrow=none;html=1;strokeColor=#000000;strokeWidth=1;" edge="1" parent="1">
          <mxGeometry width="50" height="50" relative="1" as="geometry">
            <mxPoint x="80" y="390" as="sourcePoint" />
            <mxPoint x="160" y="560" as="targetPoint" />
          </mxGeometry>
        </mxCell>
        <mxCell id="BQ29MmcqGgJMtpkOQZWi-20" value="" style="endArrow=none;html=1;strokeColor=#000000;strokeWidth=1;entryX=0;entryY=1;entryDx=0;entryDy=0;" edge="1" parent="1" target="BQ29MmcqGgJMtpkOQZWi-14">
          <mxGeometry width="50" height="50" relative="1" as="geometry">
            <mxPoint x="160" y="560" as="sourcePoint" />
            <mxPoint x="820" y="490" as="targetPoint" />
          </mxGeometry>
        </mxCell>
      </root>
    </mxGraphModel>
  </diagram>
  <diagram id="zYpxFcJR1QMtzUl3AT2l" name="Page-2">
    <mxGraphModel dx="602" dy="328" grid="1" gridSize="5" guides="1" tooltips="1" connect="1" arrows="1" fold="1" page="1" pageScale="1" pageWidth="1600" pageHeight="900" math="0" shadow="0">
      <root>
        <mxCell id="sewA7ood8XrnDMm98eSQ-0" />
        <mxCell id="sewA7ood8XrnDMm98eSQ-1" parent="sewA7ood8XrnDMm98eSQ-0" />
        <mxCell id="KjHEv2i4eSUQBq5mgSsp-0" value="" style="ellipse;whiteSpace=wrap;html=1;fillColor=none;" vertex="1" parent="sewA7ood8XrnDMm98eSQ-1">
          <mxGeometry x="140" y="360" width="20" height="80" as="geometry" />
        </mxCell>
        <mxCell id="KjHEv2i4eSUQBq5mgSsp-1" value="" style="endArrow=none;html=1;strokeColor=#000000;strokeWidth=1;" edge="1" parent="sewA7ood8XrnDMm98eSQ-1">
          <mxGeometry width="50" height="50" relative="1" as="geometry">
            <mxPoint x="80" y="439.9999999999998" as="sourcePoint" />
            <mxPoint x="80" y="359.9999999999998" as="targetPoint" />
          </mxGeometry>
        </mxCell>
        <mxCell id="KjHEv2i4eSUQBq5mgSsp-2" value="" style="endArrow=none;html=1;strokeColor=#000000;strokeWidth=1;" edge="1" parent="sewA7ood8XrnDMm98eSQ-1">
          <mxGeometry width="50" height="50" relative="1" as="geometry">
            <mxPoint x="1280" y="639.9999999999998" as="sourcePoint" />
            <mxPoint x="1280" y="160" as="targetPoint" />
          </mxGeometry>
        </mxCell>
        <mxCell id="KjHEv2i4eSUQBq5mgSsp-3" value="D&lt;br&gt;30.0 [cm]" style="endArrow=classic;startArrow=classic;html=1;strokeColor=#000000;strokeWidth=1;" edge="1" parent="sewA7ood8XrnDMm98eSQ-1">
          <mxGeometry width="50" height="50" relative="1" as="geometry">
            <mxPoint x="160" y="160" as="sourcePoint" />
            <mxPoint x="1280" y="160" as="targetPoint" />
          </mxGeometry>
        </mxCell>
        <mxCell id="KjHEv2i4eSUQBq5mgSsp-4" value="R_eye&lt;br&gt;2.5 [cm]" style="endArrow=classic;startArrow=classic;html=1;strokeColor=#000000;strokeWidth=1;" edge="1" parent="sewA7ood8XrnDMm98eSQ-1">
          <mxGeometry width="50" height="50" relative="1" as="geometry">
            <mxPoint x="80" y="160" as="sourcePoint" />
            <mxPoint x="160" y="160" as="targetPoint" />
          </mxGeometry>
        </mxCell>
        <mxCell id="KjHEv2i4eSUQBq5mgSsp-5" value="H_phone&lt;br&gt;15.0 [cm]" style="endArrow=classic;startArrow=classic;html=1;strokeColor=#000000;strokeWidth=1;" edge="1" parent="sewA7ood8XrnDMm98eSQ-1">
          <mxGeometry width="50" height="50" relative="1" as="geometry">
            <mxPoint x="1320" y="639.9999999999998" as="sourcePoint" />
            <mxPoint x="1320" y="160" as="targetPoint" />
          </mxGeometry>
        </mxCell>
        <mxCell id="KjHEv2i4eSUQBq5mgSsp-6" value="" style="endArrow=none;html=1;strokeWidth=1;" edge="1" parent="sewA7ood8XrnDMm98eSQ-1">
          <mxGeometry width="50" height="50" relative="1" as="geometry">
            <mxPoint x="40" y="399.9999999999998" as="sourcePoint" />
            <mxPoint x="1270" y="399.9999999999998" as="targetPoint" />
          </mxGeometry>
        </mxCell>
        <mxCell id="KjHEv2i4eSUQBq5mgSsp-9" value="H_pixel" style="endArrow=classic;startArrow=classic;html=1;strokeColor=#000000;strokeWidth=1;" edge="1" parent="sewA7ood8XrnDMm98eSQ-1">
          <mxGeometry width="50" height="50" relative="1" as="geometry">
            <mxPoint x="1240" y="240" as="sourcePoint" />
            <mxPoint x="1240" y="200" as="targetPoint" />
          </mxGeometry>
        </mxCell>
        <mxCell id="KjHEv2i4eSUQBq5mgSsp-10" value="" style="endArrow=none;html=1;strokeColor=#000000;strokeWidth=1;entryX=0;entryY=0;entryDx=0;entryDy=0;" edge="1" parent="sewA7ood8XrnDMm98eSQ-1">
          <mxGeometry width="50" height="50" relative="1" as="geometry">
            <mxPoint x="160" y="319.82999999999976" as="sourcePoint" />
            <mxPoint x="1270" y="319.82999999999976" as="targetPoint" />
          </mxGeometry>
        </mxCell>
        <mxCell id="KjHEv2i4eSUQBq5mgSsp-11" value="" style="endArrow=none;html=1;strokeColor=#000000;strokeWidth=1;entryX=0;entryY=0;entryDx=0;entryDy=0;" edge="1" parent="sewA7ood8XrnDMm98eSQ-1">
          <mxGeometry width="50" height="50" relative="1" as="geometry">
            <mxPoint x="160" y="479.87999999999977" as="sourcePoint" />
            <mxPoint x="1270" y="479.87999999999977" as="targetPoint" />
          </mxGeometry>
        </mxCell>
        <mxCell id="KjHEv2i4eSUQBq5mgSsp-15" value="" style="rounded=0;whiteSpace=wrap;html=1;strokeWidth=1;fillColor=none;" vertex="1" parent="sewA7ood8XrnDMm98eSQ-1">
          <mxGeometry x="1270" y="380" width="10" height="40" as="geometry" />
        </mxCell>
        <mxCell id="KjHEv2i4eSUQBq5mgSsp-20" value="" style="endArrow=none;html=1;strokeColor=#000000;strokeWidth=1;entryX=0;entryY=0.5;entryDx=0;entryDy=0;endSize=6;" edge="1" parent="sewA7ood8XrnDMm98eSQ-1" target="KjHEv2i4eSUQBq5mgSsp-41">
          <mxGeometry width="50" height="50" relative="1" as="geometry">
            <mxPoint x="80" y="405" as="sourcePoint" />
            <mxPoint x="1270" y="280" as="targetPoint" />
          </mxGeometry>
        </mxCell>
        <mxCell id="KjHEv2i4eSUQBq5mgSsp-21" value="" style="endArrow=none;html=1;strokeColor=#000000;strokeWidth=1;endSize=6;entryX=0;entryY=0.5;entryDx=0;entryDy=0;" edge="1" parent="sewA7ood8XrnDMm98eSQ-1" target="KjHEv2i4eSUQBq5mgSsp-38">
          <mxGeometry width="50" height="50" relative="1" as="geometry">
            <mxPoint x="80" y="395" as="sourcePoint" />
            <mxPoint x="1260" y="500" as="targetPoint" />
          </mxGeometry>
        </mxCell>
        <mxCell id="KjHEv2i4eSUQBq5mgSsp-23" value="" style="endArrow=none;html=1;strokeColor=#000000;strokeWidth=1;" edge="1" parent="sewA7ood8XrnDMm98eSQ-1">
          <mxGeometry width="50" height="50" relative="1" as="geometry">
            <mxPoint x="160" y="480" as="sourcePoint" />
            <mxPoint x="80" y="395" as="targetPoint" />
          </mxGeometry>
        </mxCell>
        <mxCell id="KjHEv2i4eSUQBq5mgSsp-36" value="" style="rounded=0;whiteSpace=wrap;html=1;strokeWidth=1;fillColor=none;" vertex="1" parent="sewA7ood8XrnDMm98eSQ-1">
          <mxGeometry x="1270" y="340" width="10" height="40" as="geometry" />
        </mxCell>
        <mxCell id="KjHEv2i4eSUQBq5mgSsp-37" value="" style="rounded=0;whiteSpace=wrap;html=1;strokeWidth=1;fillColor=none;" vertex="1" parent="sewA7ood8XrnDMm98eSQ-1">
          <mxGeometry x="1270" y="420" width="10" height="40" as="geometry" />
        </mxCell>
        <mxCell id="KjHEv2i4eSUQBq5mgSsp-38" value="" style="rounded=0;whiteSpace=wrap;html=1;strokeWidth=1;fillColor=none;" vertex="1" parent="sewA7ood8XrnDMm98eSQ-1">
          <mxGeometry x="1270" y="460" width="10" height="40" as="geometry" />
        </mxCell>
        <mxCell id="KjHEv2i4eSUQBq5mgSsp-39" value="" style="rounded=0;whiteSpace=wrap;html=1;strokeWidth=1;fillColor=none;" vertex="1" parent="sewA7ood8XrnDMm98eSQ-1">
          <mxGeometry x="1270" y="500" width="10" height="40" as="geometry" />
        </mxCell>
        <mxCell id="KjHEv2i4eSUQBq5mgSsp-40" value="" style="rounded=0;whiteSpace=wrap;html=1;strokeWidth=1;fillColor=none;" vertex="1" parent="sewA7ood8XrnDMm98eSQ-1">
          <mxGeometry x="1270" y="540" width="10" height="40" as="geometry" />
        </mxCell>
        <mxCell id="KjHEv2i4eSUQBq5mgSsp-41" value="" style="rounded=0;whiteSpace=wrap;html=1;strokeWidth=1;fillColor=none;" vertex="1" parent="sewA7ood8XrnDMm98eSQ-1">
          <mxGeometry x="1270" y="300" width="10" height="40" as="geometry" />
        </mxCell>
        <mxCell id="KjHEv2i4eSUQBq5mgSsp-42" value="" style="rounded=0;whiteSpace=wrap;html=1;strokeWidth=1;fillColor=none;" vertex="1" parent="sewA7ood8XrnDMm98eSQ-1">
          <mxGeometry x="1270" y="260" width="10" height="40" as="geometry" />
        </mxCell>
        <mxCell id="KjHEv2i4eSUQBq5mgSsp-43" value="" style="rounded=0;whiteSpace=wrap;html=1;strokeWidth=1;fillColor=none;" vertex="1" parent="sewA7ood8XrnDMm98eSQ-1">
          <mxGeometry x="1270" y="220" width="10" height="40" as="geometry" />
        </mxCell>
        <mxCell id="6kgb7aQ5rSt98tPtTyme-0" value="" style="endArrow=none;html=1;strokeColor=#000000;strokeWidth=1;" edge="1" parent="sewA7ood8XrnDMm98eSQ-1">
          <mxGeometry width="50" height="50" relative="1" as="geometry">
            <mxPoint x="80" y="405" as="sourcePoint" />
            <mxPoint x="160" y="320" as="targetPoint" />
          </mxGeometry>
        </mxCell>
      </root>
    </mxGraphModel>
  </diagram>
</mxfile>
